<mxfile host="app.diagrams.net" modified="2023-10-24T00:23:29.172Z" agent="Mozilla/5.0 (Macintosh; Intel Mac OS X 10_15_7) AppleWebKit/537.36 (KHTML, like Gecko) Chrome/118.0.0.0 Safari/537.36" etag="UCChJBfSLo29rTLm881G" version="22.0.6" type="google">
  <diagram name="PÃ¡gina-1" id="OCehlEBw15O4QMImfqjl">
    <mxGraphModel grid="1" page="1" gridSize="10" guides="1" tooltips="1" connect="1" arrows="1" fold="1" pageScale="1" pageWidth="827" pageHeight="1169" math="0" shadow="0">
      <root>
        <mxCell id="0" />
        <mxCell id="1" parent="0" />
        <mxCell id="63CcsMNOeVYzlO2W-9i--1" value="" style="shape=umlLifeline;perimeter=lifelinePerimeter;whiteSpace=wrap;html=1;container=1;dropTarget=0;collapsible=0;recursiveResize=0;outlineConnect=0;portConstraint=eastwest;newEdgeStyle={&quot;curved&quot;:0,&quot;rounded&quot;:0};participant=umlActor;" vertex="1" parent="1">
          <mxGeometry x="-10" y="100" width="20" height="430" as="geometry" />
        </mxCell>
        <mxCell id="63CcsMNOeVYzlO2W-9i--2" value="" style="html=1;points=[[0,0,0,0,5],[0,1,0,0,-5],[1,0,0,0,5],[1,1,0,0,-5]];perimeter=orthogonalPerimeter;outlineConnect=0;targetShapes=umlLifeline;portConstraint=eastwest;newEdgeStyle={&quot;curved&quot;:0,&quot;rounded&quot;:0};" vertex="1" parent="63CcsMNOeVYzlO2W-9i--1">
          <mxGeometry x="5" y="70" width="10" height="340" as="geometry" />
        </mxCell>
        <mxCell id="63CcsMNOeVYzlO2W-9i--3" value="VistaCrearCuenta" style="shape=umlLifeline;perimeter=lifelinePerimeter;whiteSpace=wrap;html=1;container=1;dropTarget=0;collapsible=0;recursiveResize=0;outlineConnect=0;portConstraint=eastwest;newEdgeStyle={&quot;curved&quot;:0,&quot;rounded&quot;:0};" vertex="1" parent="1">
          <mxGeometry x="70" y="100" width="160" height="430" as="geometry" />
        </mxCell>
        <mxCell id="63CcsMNOeVYzlO2W-9i--4" style="edgeStyle=orthogonalEdgeStyle;rounded=0;orthogonalLoop=1;jettySize=auto;html=1;curved=0;exitX=1;exitY=1;exitDx=0;exitDy=-5;exitPerimeter=0;" edge="1" parent="63CcsMNOeVYzlO2W-9i--3">
          <mxGeometry relative="1" as="geometry">
            <mxPoint x="85" y="340" as="targetPoint" />
            <mxPoint x="85" y="395" as="sourcePoint" />
            <Array as="points">
              <mxPoint x="105" y="395" />
              <mxPoint x="105" y="340" />
            </Array>
          </mxGeometry>
        </mxCell>
        <mxCell id="63CcsMNOeVYzlO2W-9i--5" value="mensajeRegistro" style="edgeLabel;html=1;align=center;verticalAlign=middle;resizable=0;points=[];" connectable="0" vertex="1" parent="63CcsMNOeVYzlO2W-9i--4">
          <mxGeometry x="-0.0526" y="2" relative="1" as="geometry">
            <mxPoint x="27" as="offset" />
          </mxGeometry>
        </mxCell>
        <mxCell id="63CcsMNOeVYzlO2W-9i--35" style="edgeStyle=orthogonalEdgeStyle;rounded=0;orthogonalLoop=1;jettySize=auto;html=1;curved=0;" edge="1" parent="63CcsMNOeVYzlO2W-9i--3" target="63CcsMNOeVYzlO2W-9i--6">
          <mxGeometry relative="1" as="geometry">
            <mxPoint x="100" y="165" as="targetPoint" />
            <mxPoint x="85" y="60" as="sourcePoint" />
            <Array as="points">
              <mxPoint x="85" y="75" />
              <mxPoint x="105" y="75" />
              <mxPoint x="105" y="100" />
            </Array>
          </mxGeometry>
        </mxCell>
        <mxCell id="63CcsMNOeVYzlO2W-9i--36" value="mostrarFormulario()" style="edgeLabel;html=1;align=center;verticalAlign=middle;resizable=0;points=[];" connectable="0" vertex="1" parent="63CcsMNOeVYzlO2W-9i--35">
          <mxGeometry x="0.6122" y="-3" relative="1" as="geometry">
            <mxPoint x="38" y="-11" as="offset" />
          </mxGeometry>
        </mxCell>
        <mxCell id="63CcsMNOeVYzlO2W-9i--6" value="" style="html=1;points=[[0,0,0,0,5],[0,1,0,0,-5],[1,0,0,0,5],[1,1,0,0,-5]];perimeter=orthogonalPerimeter;outlineConnect=0;targetShapes=umlLifeline;portConstraint=eastwest;newEdgeStyle={&quot;curved&quot;:0,&quot;rounded&quot;:0};" vertex="1" parent="63CcsMNOeVYzlO2W-9i--3">
          <mxGeometry x="75" y="70" width="10" height="340" as="geometry" />
        </mxCell>
        <mxCell id="63CcsMNOeVYzlO2W-9i--7" value="ControladorPaticipante" style="shape=umlLifeline;whiteSpace=wrap;html=1;container=1;dropTarget=0;collapsible=0;recursiveResize=0;outlineConnect=0;portConstraint=eastwest;newEdgeStyle={&quot;curved&quot;:0,&quot;rounded&quot;:0};points=[[0,0,0,0,5],[0,1,0,0,-5],[1,0,0,0,5],[1,1,0,0,-5]];perimeter=rectanglePerimeter;targetShapes=umlLifeline;participant=label;" vertex="1" parent="1">
          <mxGeometry x="250" y="100" width="160" height="430" as="geometry" />
        </mxCell>
        <mxCell id="63CcsMNOeVYzlO2W-9i--8" value="" style="html=1;points=[[0,0,0,0,5],[0,1,0,0,-5],[1,0,0,0,5],[1,1,0,0,-5]];perimeter=orthogonalPerimeter;outlineConnect=0;targetShapes=umlLifeline;portConstraint=eastwest;newEdgeStyle={&quot;curved&quot;:0,&quot;rounded&quot;:0};" vertex="1" parent="63CcsMNOeVYzlO2W-9i--7">
          <mxGeometry x="75" y="70" width="10" height="340" as="geometry" />
        </mxCell>
        <mxCell id="63CcsMNOeVYzlO2W-9i--9" value="BDDEditarParticipante" style="shape=umlLifeline;perimeter=lifelinePerimeter;whiteSpace=wrap;html=1;container=1;dropTarget=0;collapsible=0;recursiveResize=0;outlineConnect=0;portConstraint=eastwest;newEdgeStyle={&quot;curved&quot;:0,&quot;rounded&quot;:0};" vertex="1" parent="1">
          <mxGeometry x="425" y="100" width="160" height="430" as="geometry" />
        </mxCell>
        <mxCell id="63CcsMNOeVYzlO2W-9i--10" value="" style="html=1;points=[[0,0,0,0,5],[0,1,0,0,-5],[1,0,0,0,5],[1,1,0,0,-5]];perimeter=orthogonalPerimeter;outlineConnect=0;targetShapes=umlLifeline;portConstraint=eastwest;newEdgeStyle={&quot;curved&quot;:0,&quot;rounded&quot;:0};" vertex="1" parent="63CcsMNOeVYzlO2W-9i--9">
          <mxGeometry x="75" y="100" width="10" height="310" as="geometry" />
        </mxCell>
        <mxCell id="63CcsMNOeVYzlO2W-9i--11" value="ConexionBDD" style="shape=umlLifeline;perimeter=lifelinePerimeter;whiteSpace=wrap;html=1;container=1;dropTarget=0;collapsible=0;recursiveResize=0;outlineConnect=0;portConstraint=eastwest;newEdgeStyle={&quot;curved&quot;:0,&quot;rounded&quot;:0};" vertex="1" parent="1">
          <mxGeometry x="600" y="100" width="160" height="430" as="geometry" />
        </mxCell>
        <mxCell id="63CcsMNOeVYzlO2W-9i--12" value="" style="html=1;points=[[0,0,0,0,5],[0,1,0,0,-5],[1,0,0,0,5],[1,1,0,0,-5]];perimeter=orthogonalPerimeter;outlineConnect=0;targetShapes=umlLifeline;portConstraint=eastwest;newEdgeStyle={&quot;curved&quot;:0,&quot;rounded&quot;:0};" vertex="1" parent="63CcsMNOeVYzlO2W-9i--11">
          <mxGeometry x="75" y="100" width="10" height="310" as="geometry" />
        </mxCell>
        <mxCell id="63CcsMNOeVYzlO2W-9i--13" style="edgeStyle=orthogonalEdgeStyle;rounded=0;orthogonalLoop=1;jettySize=auto;html=1;curved=0;exitX=1;exitY=0;exitDx=0;exitDy=5;exitPerimeter=0;" edge="1" parent="1">
          <mxGeometry relative="1" as="geometry">
            <mxPoint x="160" y="210" as="sourcePoint" />
            <mxPoint x="320" y="210" as="targetPoint" />
          </mxGeometry>
        </mxCell>
        <mxCell id="63CcsMNOeVYzlO2W-9i--14" value="crearParticipante()" style="edgeLabel;html=1;align=center;verticalAlign=middle;resizable=0;points=[];" connectable="0" vertex="1" parent="63CcsMNOeVYzlO2W-9i--13">
          <mxGeometry x="0.1294" y="3" relative="1" as="geometry">
            <mxPoint x="-20" y="8" as="offset" />
          </mxGeometry>
        </mxCell>
        <mxCell id="63CcsMNOeVYzlO2W-9i--15" style="edgeStyle=orthogonalEdgeStyle;rounded=0;orthogonalLoop=1;jettySize=auto;html=1;curved=0;exitX=1;exitY=0;exitDx=0;exitDy=5;exitPerimeter=0;entryX=0;entryY=0;entryDx=0;entryDy=5;entryPerimeter=0;" edge="1" parent="1" source="63CcsMNOeVYzlO2W-9i--8" target="63CcsMNOeVYzlO2W-9i--10">
          <mxGeometry relative="1" as="geometry">
            <Array as="points">
              <mxPoint x="335" y="210" />
              <mxPoint x="480" y="210" />
              <mxPoint x="480" y="205" />
            </Array>
          </mxGeometry>
        </mxCell>
        <mxCell id="63CcsMNOeVYzlO2W-9i--16" value="existeCorreo()" style="edgeLabel;html=1;align=center;verticalAlign=middle;resizable=0;points=[];" connectable="0" vertex="1" parent="63CcsMNOeVYzlO2W-9i--15">
          <mxGeometry x="-0.0205" y="2" relative="1" as="geometry">
            <mxPoint x="13" as="offset" />
          </mxGeometry>
        </mxCell>
        <mxCell id="63CcsMNOeVYzlO2W-9i--17" style="edgeStyle=orthogonalEdgeStyle;rounded=0;orthogonalLoop=1;jettySize=auto;html=1;curved=0;entryX=0;entryY=0;entryDx=0;entryDy=5;entryPerimeter=0;" edge="1" parent="1">
          <mxGeometry relative="1" as="geometry">
            <mxPoint x="504.59090909090946" y="255" as="sourcePoint" />
            <mxPoint x="675" y="250" as="targetPoint" />
            <Array as="points">
              <mxPoint x="675" y="255" />
            </Array>
          </mxGeometry>
        </mxCell>
        <mxCell id="63CcsMNOeVYzlO2W-9i--18" value="existeCorreo()" style="edgeLabel;html=1;align=center;verticalAlign=middle;resizable=0;points=[];" connectable="0" vertex="1" parent="63CcsMNOeVYzlO2W-9i--17">
          <mxGeometry x="-0.0098" y="2" relative="1" as="geometry">
            <mxPoint y="1" as="offset" />
          </mxGeometry>
        </mxCell>
        <mxCell id="63CcsMNOeVYzlO2W-9i--19" value="conexionBDD" style="endArrow=open;endSize=12;dashed=1;html=1;rounded=0;" edge="1" parent="1">
          <mxGeometry x="-0.0031" width="160" relative="1" as="geometry">
            <mxPoint x="670.5" y="230" as="sourcePoint" />
            <mxPoint x="510" y="230" as="targetPoint" />
            <mxPoint as="offset" />
          </mxGeometry>
        </mxCell>
        <mxCell id="63CcsMNOeVYzlO2W-9i--20" value="confimacion" style="html=1;verticalAlign=bottom;endArrow=open;dashed=1;endSize=8;curved=0;rounded=0;" edge="1" parent="1">
          <mxGeometry x="-0.0678" y="10" relative="1" as="geometry">
            <mxPoint x="670" y="410" as="sourcePoint" />
            <mxPoint x="510" y="410" as="targetPoint" />
            <mxPoint as="offset" />
          </mxGeometry>
        </mxCell>
        <mxCell id="63CcsMNOeVYzlO2W-9i--21" style="edgeStyle=orthogonalEdgeStyle;rounded=0;orthogonalLoop=1;jettySize=auto;html=1;curved=0;" edge="1" parent="1">
          <mxGeometry relative="1" as="geometry">
            <mxPoint x="510" y="330" as="sourcePoint" />
            <mxPoint x="675" y="345" as="targetPoint" />
            <Array as="points">
              <mxPoint x="510" y="331" />
              <mxPoint x="593" y="331" />
              <mxPoint x="593" y="365" />
              <mxPoint x="676" y="365" />
            </Array>
          </mxGeometry>
        </mxCell>
        <mxCell id="63CcsMNOeVYzlO2W-9i--22" value="crearParticipante" style="edgeLabel;html=1;align=center;verticalAlign=middle;resizable=0;points=[];" connectable="0" vertex="1" parent="63CcsMNOeVYzlO2W-9i--21">
          <mxGeometry x="-0.0951" y="-3" relative="1" as="geometry">
            <mxPoint as="offset" />
          </mxGeometry>
        </mxCell>
        <mxCell id="63CcsMNOeVYzlO2W-9i--23" value="confirmacion" style="html=1;verticalAlign=bottom;endArrow=open;dashed=1;endSize=8;curved=0;rounded=0;" edge="1" parent="1">
          <mxGeometry x="-0.0678" y="10" relative="1" as="geometry">
            <mxPoint x="495.5" y="410" as="sourcePoint" />
            <mxPoint x="331.0000000000002" y="409.9999999999999" as="targetPoint" />
            <mxPoint as="offset" />
          </mxGeometry>
        </mxCell>
        <mxCell id="63CcsMNOeVYzlO2W-9i--24" value="participante: Participante" style="html=1;verticalAlign=bottom;endArrow=open;dashed=1;endSize=8;curved=0;rounded=0;" edge="1" parent="1" target="63CcsMNOeVYzlO2W-9i--6">
          <mxGeometry x="-0.0678" y="10" relative="1" as="geometry">
            <mxPoint x="319.5" y="350" as="sourcePoint" />
            <mxPoint x="160" y="350" as="targetPoint" />
            <mxPoint as="offset" />
          </mxGeometry>
        </mxCell>
        <mxCell id="63CcsMNOeVYzlO2W-9i--25" style="edgeStyle=orthogonalEdgeStyle;rounded=0;orthogonalLoop=1;jettySize=auto;html=1;curved=0;exitX=1;exitY=0;exitDx=0;exitDy=5;exitPerimeter=0;entryX=0;entryY=0;entryDx=0;entryDy=5;entryPerimeter=0;" edge="1" parent="1" source="63CcsMNOeVYzlO2W-9i--2" target="63CcsMNOeVYzlO2W-9i--6">
          <mxGeometry relative="1" as="geometry" />
        </mxCell>
        <mxCell id="63CcsMNOeVYzlO2W-9i--26" value="&lt;font style=&quot;font-size: 18px;&quot;&gt;Flujo normal&lt;/font&gt;" style="text;html=1;strokeColor=none;fillColor=none;align=center;verticalAlign=middle;whiteSpace=wrap;rounded=0;" vertex="1" parent="1">
          <mxGeometry x="-57.5" y="40" width="205" height="30" as="geometry" />
        </mxCell>
        <mxCell id="63CcsMNOeVYzlO2W-9i--42" style="edgeStyle=orthogonalEdgeStyle;rounded=0;orthogonalLoop=1;jettySize=auto;html=1;curved=0;exitX=1;exitY=0;exitDx=0;exitDy=5;exitPerimeter=0;entryX=0;entryY=0;entryDx=0;entryDy=5;entryPerimeter=0;" edge="1" parent="1" source="63CcsMNOeVYzlO2W-9i--10" target="63CcsMNOeVYzlO2W-9i--12">
          <mxGeometry relative="1" as="geometry" />
        </mxCell>
        <mxCell id="63CcsMNOeVYzlO2W-9i--43" value="conectarBDD()" style="edgeLabel;html=1;align=center;verticalAlign=middle;resizable=0;points=[];" connectable="0" vertex="1" parent="63CcsMNOeVYzlO2W-9i--42">
          <mxGeometry x="0.1472" y="2" relative="1" as="geometry">
            <mxPoint x="-20" as="offset" />
          </mxGeometry>
        </mxCell>
        <mxCell id="63CcsMNOeVYzlO2W-9i--46" value="Existe Respuesta*" style="endArrow=open;endSize=12;dashed=1;html=1;rounded=0;" edge="1" parent="1">
          <mxGeometry x="-0.0031" width="160" relative="1" as="geometry">
            <mxPoint x="670.5" y="280" as="sourcePoint" />
            <mxPoint x="510" y="280" as="targetPoint" />
            <mxPoint as="offset" />
          </mxGeometry>
        </mxCell>
        <mxCell id="63CcsMNOeVYzlO2W-9i--47" value="Existe Respuesta*" style="endArrow=open;endSize=12;dashed=1;html=1;rounded=0;" edge="1" parent="1">
          <mxGeometry x="-0.0031" width="160" relative="1" as="geometry">
            <mxPoint x="500.5" y="280" as="sourcePoint" />
            <mxPoint x="340" y="280" as="targetPoint" />
            <mxPoint as="offset" />
          </mxGeometry>
        </mxCell>
        <mxCell id="63CcsMNOeVYzlO2W-9i--48" style="edgeStyle=orthogonalEdgeStyle;rounded=0;orthogonalLoop=1;jettySize=auto;html=1;curved=0;exitX=1;exitY=0;exitDx=0;exitDy=5;exitPerimeter=0;" edge="1" parent="1">
          <mxGeometry relative="1" as="geometry">
            <mxPoint x="334" y="330" as="sourcePoint" />
            <mxPoint x="494" y="330" as="targetPoint" />
          </mxGeometry>
        </mxCell>
        <mxCell id="63CcsMNOeVYzlO2W-9i--49" value="crearParticipante(&lt;br&gt;Participante)" style="edgeLabel;html=1;align=center;verticalAlign=middle;resizable=0;points=[];" connectable="0" vertex="1" parent="63CcsMNOeVYzlO2W-9i--48">
          <mxGeometry x="0.1294" y="3" relative="1" as="geometry">
            <mxPoint x="-20" y="8" as="offset" />
          </mxGeometry>
        </mxCell>
        <mxCell id="63CcsMNOeVYzlO2W-9i--50" value="confirmacion" style="html=1;verticalAlign=bottom;endArrow=open;dashed=1;endSize=8;curved=0;rounded=0;" edge="1" parent="1">
          <mxGeometry x="-0.0678" y="10" relative="1" as="geometry">
            <mxPoint x="324.5" y="410" as="sourcePoint" />
            <mxPoint x="160.00000000000023" y="409.9999999999999" as="targetPoint" />
            <mxPoint as="offset" />
          </mxGeometry>
        </mxCell>
        <mxCell id="63CcsMNOeVYzlO2W-9i--51" value="&lt;span style=&quot;font-size: 18px;&quot;&gt;Flujo Alternativo&lt;/span&gt;" style="text;html=1;strokeColor=none;fillColor=none;align=center;verticalAlign=middle;whiteSpace=wrap;rounded=0;" vertex="1" parent="1">
          <mxGeometry x="-40" y="585" width="205" height="30" as="geometry" />
        </mxCell>
        <mxCell id="63CcsMNOeVYzlO2W-9i--52" value="" style="shape=umlLifeline;perimeter=lifelinePerimeter;whiteSpace=wrap;html=1;container=1;dropTarget=0;collapsible=0;recursiveResize=0;outlineConnect=0;portConstraint=eastwest;newEdgeStyle={&quot;curved&quot;:0,&quot;rounded&quot;:0};participant=umlActor;" vertex="1" parent="1">
          <mxGeometry x="-10" y="640" width="20" height="290" as="geometry" />
        </mxCell>
        <mxCell id="63CcsMNOeVYzlO2W-9i--53" value="" style="html=1;points=[[0,0,0,0,5],[0,1,0,0,-5],[1,0,0,0,5],[1,1,0,0,-5]];perimeter=orthogonalPerimeter;outlineConnect=0;targetShapes=umlLifeline;portConstraint=eastwest;newEdgeStyle={&quot;curved&quot;:0,&quot;rounded&quot;:0};" vertex="1" parent="63CcsMNOeVYzlO2W-9i--52">
          <mxGeometry x="5" y="70" width="10" height="210" as="geometry" />
        </mxCell>
        <mxCell id="63CcsMNOeVYzlO2W-9i--54" value="VistaCrearCuenta" style="shape=umlLifeline;perimeter=lifelinePerimeter;whiteSpace=wrap;html=1;container=1;dropTarget=0;collapsible=0;recursiveResize=0;outlineConnect=0;portConstraint=eastwest;newEdgeStyle={&quot;curved&quot;:0,&quot;rounded&quot;:0};" vertex="1" parent="1">
          <mxGeometry x="70" y="640" width="160" height="290" as="geometry" />
        </mxCell>
        <mxCell id="63CcsMNOeVYzlO2W-9i--55" style="edgeStyle=orthogonalEdgeStyle;rounded=0;orthogonalLoop=1;jettySize=auto;html=1;curved=0;exitX=1;exitY=1;exitDx=0;exitDy=-5;exitPerimeter=0;" edge="1" parent="63CcsMNOeVYzlO2W-9i--54">
          <mxGeometry relative="1" as="geometry">
            <mxPoint x="85" y="210" as="targetPoint" />
            <mxPoint x="85" y="265" as="sourcePoint" />
            <Array as="points">
              <mxPoint x="105" y="265" />
              <mxPoint x="105" y="210" />
            </Array>
          </mxGeometry>
        </mxCell>
        <mxCell id="63CcsMNOeVYzlO2W-9i--56" value="Mensaje de ya registrado" style="edgeLabel;html=1;align=center;verticalAlign=middle;resizable=0;points=[];" connectable="0" vertex="1" parent="63CcsMNOeVYzlO2W-9i--55">
          <mxGeometry x="-0.0526" y="2" relative="1" as="geometry">
            <mxPoint x="47" as="offset" />
          </mxGeometry>
        </mxCell>
        <mxCell id="63CcsMNOeVYzlO2W-9i--57" style="edgeStyle=orthogonalEdgeStyle;rounded=0;orthogonalLoop=1;jettySize=auto;html=1;curved=0;" edge="1" parent="63CcsMNOeVYzlO2W-9i--54" target="63CcsMNOeVYzlO2W-9i--59">
          <mxGeometry relative="1" as="geometry">
            <mxPoint x="100" y="165" as="targetPoint" />
            <mxPoint x="85" y="60" as="sourcePoint" />
            <Array as="points">
              <mxPoint x="85" y="75" />
              <mxPoint x="105" y="75" />
              <mxPoint x="105" y="100" />
            </Array>
          </mxGeometry>
        </mxCell>
        <mxCell id="63CcsMNOeVYzlO2W-9i--58" value="mostrarFormulario()" style="edgeLabel;html=1;align=center;verticalAlign=middle;resizable=0;points=[];" connectable="0" vertex="1" parent="63CcsMNOeVYzlO2W-9i--57">
          <mxGeometry x="0.6122" y="-3" relative="1" as="geometry">
            <mxPoint x="38" y="-11" as="offset" />
          </mxGeometry>
        </mxCell>
        <mxCell id="63CcsMNOeVYzlO2W-9i--59" value="" style="html=1;points=[[0,0,0,0,5],[0,1,0,0,-5],[1,0,0,0,5],[1,1,0,0,-5]];perimeter=orthogonalPerimeter;outlineConnect=0;targetShapes=umlLifeline;portConstraint=eastwest;newEdgeStyle={&quot;curved&quot;:0,&quot;rounded&quot;:0};" vertex="1" parent="63CcsMNOeVYzlO2W-9i--54">
          <mxGeometry x="75" y="70" width="10" height="210" as="geometry" />
        </mxCell>
        <mxCell id="63CcsMNOeVYzlO2W-9i--60" value="ControladorPaticipante" style="shape=umlLifeline;whiteSpace=wrap;html=1;container=1;dropTarget=0;collapsible=0;recursiveResize=0;outlineConnect=0;portConstraint=eastwest;newEdgeStyle={&quot;curved&quot;:0,&quot;rounded&quot;:0};points=[[0,0,0,0,5],[0,1,0,0,-5],[1,0,0,0,5],[1,1,0,0,-5]];perimeter=rectanglePerimeter;targetShapes=umlLifeline;participant=label;" vertex="1" parent="1">
          <mxGeometry x="250" y="640" width="160" height="290" as="geometry" />
        </mxCell>
        <mxCell id="63CcsMNOeVYzlO2W-9i--61" value="" style="html=1;points=[[0,0,0,0,5],[0,1,0,0,-5],[1,0,0,0,5],[1,1,0,0,-5]];perimeter=orthogonalPerimeter;outlineConnect=0;targetShapes=umlLifeline;portConstraint=eastwest;newEdgeStyle={&quot;curved&quot;:0,&quot;rounded&quot;:0};" vertex="1" parent="63CcsMNOeVYzlO2W-9i--60">
          <mxGeometry x="75" y="70" width="10" height="170" as="geometry" />
        </mxCell>
        <mxCell id="63CcsMNOeVYzlO2W-9i--62" value="BDDEditarParticipante" style="shape=umlLifeline;perimeter=lifelinePerimeter;whiteSpace=wrap;html=1;container=1;dropTarget=0;collapsible=0;recursiveResize=0;outlineConnect=0;portConstraint=eastwest;newEdgeStyle={&quot;curved&quot;:0,&quot;rounded&quot;:0};" vertex="1" parent="1">
          <mxGeometry x="425" y="640" width="160" height="290" as="geometry" />
        </mxCell>
        <mxCell id="63CcsMNOeVYzlO2W-9i--63" value="" style="html=1;points=[[0,0,0,0,5],[0,1,0,0,-5],[1,0,0,0,5],[1,1,0,0,-5]];perimeter=orthogonalPerimeter;outlineConnect=0;targetShapes=umlLifeline;portConstraint=eastwest;newEdgeStyle={&quot;curved&quot;:0,&quot;rounded&quot;:0};" vertex="1" parent="63CcsMNOeVYzlO2W-9i--62">
          <mxGeometry x="75" y="100" width="10" height="130" as="geometry" />
        </mxCell>
        <mxCell id="63CcsMNOeVYzlO2W-9i--64" value="ConexionBDD" style="shape=umlLifeline;perimeter=lifelinePerimeter;whiteSpace=wrap;html=1;container=1;dropTarget=0;collapsible=0;recursiveResize=0;outlineConnect=0;portConstraint=eastwest;newEdgeStyle={&quot;curved&quot;:0,&quot;rounded&quot;:0};" vertex="1" parent="1">
          <mxGeometry x="600" y="640" width="160" height="280" as="geometry" />
        </mxCell>
        <mxCell id="63CcsMNOeVYzlO2W-9i--65" value="" style="html=1;points=[[0,0,0,0,5],[0,1,0,0,-5],[1,0,0,0,5],[1,1,0,0,-5]];perimeter=orthogonalPerimeter;outlineConnect=0;targetShapes=umlLifeline;portConstraint=eastwest;newEdgeStyle={&quot;curved&quot;:0,&quot;rounded&quot;:0};" vertex="1" parent="63CcsMNOeVYzlO2W-9i--64">
          <mxGeometry x="75" y="100" width="10" height="110" as="geometry" />
        </mxCell>
        <mxCell id="63CcsMNOeVYzlO2W-9i--66" style="edgeStyle=orthogonalEdgeStyle;rounded=0;orthogonalLoop=1;jettySize=auto;html=1;curved=0;exitX=1;exitY=0;exitDx=0;exitDy=5;exitPerimeter=0;" edge="1" parent="1">
          <mxGeometry relative="1" as="geometry">
            <mxPoint x="160" y="750" as="sourcePoint" />
            <mxPoint x="320" y="750" as="targetPoint" />
          </mxGeometry>
        </mxCell>
        <mxCell id="63CcsMNOeVYzlO2W-9i--67" value="crearParticipante()" style="edgeLabel;html=1;align=center;verticalAlign=middle;resizable=0;points=[];" connectable="0" vertex="1" parent="63CcsMNOeVYzlO2W-9i--66">
          <mxGeometry x="0.1294" y="3" relative="1" as="geometry">
            <mxPoint x="-20" y="8" as="offset" />
          </mxGeometry>
        </mxCell>
        <mxCell id="63CcsMNOeVYzlO2W-9i--68" style="edgeStyle=orthogonalEdgeStyle;rounded=0;orthogonalLoop=1;jettySize=auto;html=1;curved=0;exitX=1;exitY=0;exitDx=0;exitDy=5;exitPerimeter=0;entryX=0;entryY=0;entryDx=0;entryDy=5;entryPerimeter=0;" edge="1" parent="1" source="63CcsMNOeVYzlO2W-9i--61" target="63CcsMNOeVYzlO2W-9i--63">
          <mxGeometry relative="1" as="geometry">
            <Array as="points">
              <mxPoint x="335" y="750" />
              <mxPoint x="480" y="750" />
              <mxPoint x="480" y="745" />
            </Array>
          </mxGeometry>
        </mxCell>
        <mxCell id="63CcsMNOeVYzlO2W-9i--69" value="existeCorreo()" style="edgeLabel;html=1;align=center;verticalAlign=middle;resizable=0;points=[];" connectable="0" vertex="1" parent="63CcsMNOeVYzlO2W-9i--68">
          <mxGeometry x="-0.0205" y="2" relative="1" as="geometry">
            <mxPoint x="13" as="offset" />
          </mxGeometry>
        </mxCell>
        <mxCell id="63CcsMNOeVYzlO2W-9i--70" style="edgeStyle=orthogonalEdgeStyle;rounded=0;orthogonalLoop=1;jettySize=auto;html=1;curved=0;entryX=0;entryY=0;entryDx=0;entryDy=5;entryPerimeter=0;" edge="1" parent="1">
          <mxGeometry relative="1" as="geometry">
            <mxPoint x="504.59090909090946" y="795" as="sourcePoint" />
            <mxPoint x="675" y="790" as="targetPoint" />
            <Array as="points">
              <mxPoint x="675" y="795" />
            </Array>
          </mxGeometry>
        </mxCell>
        <mxCell id="63CcsMNOeVYzlO2W-9i--71" value="existeCorreo()" style="edgeLabel;html=1;align=center;verticalAlign=middle;resizable=0;points=[];" connectable="0" vertex="1" parent="63CcsMNOeVYzlO2W-9i--70">
          <mxGeometry x="-0.0098" y="2" relative="1" as="geometry">
            <mxPoint y="1" as="offset" />
          </mxGeometry>
        </mxCell>
        <mxCell id="63CcsMNOeVYzlO2W-9i--72" value="conexionBDD" style="endArrow=open;endSize=12;dashed=1;html=1;rounded=0;" edge="1" parent="1">
          <mxGeometry x="-0.0031" width="160" relative="1" as="geometry">
            <mxPoint x="670.5" y="770" as="sourcePoint" />
            <mxPoint x="510" y="770" as="targetPoint" />
            <mxPoint as="offset" />
          </mxGeometry>
        </mxCell>
        <mxCell id="63CcsMNOeVYzlO2W-9i--78" style="edgeStyle=orthogonalEdgeStyle;rounded=0;orthogonalLoop=1;jettySize=auto;html=1;curved=0;exitX=1;exitY=0;exitDx=0;exitDy=5;exitPerimeter=0;entryX=0;entryY=0;entryDx=0;entryDy=5;entryPerimeter=0;" edge="1" parent="1" source="63CcsMNOeVYzlO2W-9i--53" target="63CcsMNOeVYzlO2W-9i--59">
          <mxGeometry relative="1" as="geometry" />
        </mxCell>
        <mxCell id="63CcsMNOeVYzlO2W-9i--79" style="edgeStyle=orthogonalEdgeStyle;rounded=0;orthogonalLoop=1;jettySize=auto;html=1;curved=0;exitX=1;exitY=0;exitDx=0;exitDy=5;exitPerimeter=0;entryX=0;entryY=0;entryDx=0;entryDy=5;entryPerimeter=0;" edge="1" parent="1" source="63CcsMNOeVYzlO2W-9i--63" target="63CcsMNOeVYzlO2W-9i--65">
          <mxGeometry relative="1" as="geometry" />
        </mxCell>
        <mxCell id="63CcsMNOeVYzlO2W-9i--80" value="conectarBDD()" style="edgeLabel;html=1;align=center;verticalAlign=middle;resizable=0;points=[];" connectable="0" vertex="1" parent="63CcsMNOeVYzlO2W-9i--79">
          <mxGeometry x="0.1472" y="2" relative="1" as="geometry">
            <mxPoint x="-20" as="offset" />
          </mxGeometry>
        </mxCell>
        <mxCell id="63CcsMNOeVYzlO2W-9i--81" value="Existe Respuesta*" style="endArrow=open;endSize=12;dashed=1;html=1;rounded=0;" edge="1" parent="1">
          <mxGeometry x="-0.0031" width="160" relative="1" as="geometry">
            <mxPoint x="670.5" y="820" as="sourcePoint" />
            <mxPoint x="510" y="820" as="targetPoint" />
            <mxPoint as="offset" />
          </mxGeometry>
        </mxCell>
        <mxCell id="63CcsMNOeVYzlO2W-9i--82" value="Existe Respuesta*" style="endArrow=open;endSize=12;dashed=1;html=1;rounded=0;" edge="1" parent="1">
          <mxGeometry x="-0.0031" width="160" relative="1" as="geometry">
            <mxPoint x="500.5" y="830" as="sourcePoint" />
            <mxPoint x="340" y="830" as="targetPoint" />
            <mxPoint as="offset" />
          </mxGeometry>
        </mxCell>
        <mxCell id="63CcsMNOeVYzlO2W-9i--85" value="Existe Respuesta" style="html=1;verticalAlign=bottom;endArrow=open;dashed=1;endSize=8;curved=0;rounded=0;" edge="1" parent="1">
          <mxGeometry x="-0.0678" y="10" relative="1" as="geometry">
            <mxPoint x="327.55" y="830" as="sourcePoint" />
            <mxPoint x="147.4973684210525" y="830" as="targetPoint" />
            <mxPoint as="offset" />
            <Array as="points">
              <mxPoint x="308.05" y="830" />
            </Array>
          </mxGeometry>
        </mxCell>
      </root>
    </mxGraphModel>
  </diagram>
</mxfile>
